<svg width="24" height="24" viewBox="0 0 24 24" fill="none" xmlns="http://www.w3.org/2000/svg">
<path d="M1.79822 17.0845C1.79822 16.5692 1.93122 16.1092 2.19722 15.7047C2.46322 15.3002 2.81863 14.9858 3.26347 14.7615C4.21347 14.2962 5.16888 13.9375 6.12972 13.6855C7.09072 13.4337 8.1468 13.3077 9.29797 13.3077C10.4493 13.3077 11.5054 13.4337 12.4662 13.6855C13.4272 13.9375 14.3827 14.2962 15.3327 14.7615C15.7776 14.9858 16.133 15.3002 16.399 15.7047C16.665 16.1092 16.798 16.5692 16.798 17.0845V17.7885C16.798 18.191 16.6502 18.5448 16.3547 18.85C16.0592 19.1552 15.7006 19.3077 15.2787 19.3077H3.31722C2.89555 19.3077 2.53697 19.16 2.24147 18.8645C1.94597 18.5688 1.79822 18.2102 1.79822 17.7885V17.0845ZM18.4115 19.3077C18.5371 19.0782 18.633 18.8343 18.699 18.576C18.765 18.3177 18.798 18.0552 18.798 17.7885V16.9615C18.798 16.3052 18.6371 15.6796 18.3155 15.0848C17.9936 14.4898 17.5378 13.9795 16.948 13.554C17.6185 13.654 18.2551 13.8087 18.8577 14.0182C19.4602 14.2279 20.0352 14.4757 20.5827 14.7615C21.0994 15.0372 21.4984 15.3615 21.7797 15.7345C22.0611 16.1077 22.2017 16.5167 22.2017 16.9615V17.7885C22.2017 18.2102 22.054 18.5688 21.7585 18.8645C21.463 19.16 21.1044 19.3077 20.6827 19.3077H18.4115ZM6.82397 10.6662C6.14014 9.98242 5.79822 9.15775 5.79822 8.19225C5.79822 7.22692 6.14014 6.40225 6.82397 5.71825C7.50797 5.03425 8.33264 4.69225 9.29797 4.69225C10.2635 4.69225 11.0881 5.03425 11.772 5.71825C12.456 6.40225 12.798 7.22692 12.798 8.19225C12.798 9.15775 12.456 9.98242 11.772 10.6662C11.0881 11.3502 10.2635 11.6922 9.29797 11.6922C8.33264 11.6922 7.50797 11.3502 6.82397 10.6662ZM16.9067 10.6662C16.2227 11.3502 15.3981 11.6922 14.4327 11.6922C14.3199 11.6922 14.1763 11.6794 14.002 11.6537C13.8275 11.6281 13.6839 11.5999 13.5712 11.5692C13.9634 11.0936 14.2659 10.5676 14.4787 9.99125C14.6916 9.41508 14.798 8.81542 14.798 8.19225C14.798 7.56925 14.69 6.97117 14.474 6.398C14.258 5.825 13.9571 5.2975 13.5712 4.8155C13.7147 4.76417 13.8583 4.73083 14.002 4.7155C14.1455 4.7 14.2891 4.69225 14.4327 4.69225C15.3981 4.69225 16.2227 5.03425 16.9067 5.71825C17.5906 6.40225 17.9325 7.22692 17.9325 8.19225C17.9325 9.15775 17.5906 9.98242 16.9067 10.6662Z" fill="currentColor"/>
</svg>
