<svg width="20" height="20" viewBox="0 0 20 20" fill="none" xmlns="http://www.w3.org/2000/svg">
<circle cx="10" cy="10" r="10" fill="#F79A6E"/>
<mask id="mask0_53_555" style="mask-type:alpha" maskUnits="userSpaceOnUse" x="2" y="3" width="15" height="15">
<rect x="2.10526" y="3.15784" width="14.7368" height="14.7368" fill="#D9D9D9"/>
</mask>
<g mask="url(#mask0_53_555)">
<path d="M13.243 15.2602L10.3429 12.3601L11.3134 11.3894L14.2136 14.2895C14.3443 14.4202 14.4096 14.582 14.4096 14.7749C14.4096 14.9677 14.3443 15.1295 14.2136 15.2602C14.0829 15.3909 13.9211 15.4562 13.7282 15.4562C13.5354 15.4562 13.3736 15.3909 13.243 15.2602ZM4.54377 14.7749C4.54377 14.582 4.60911 14.4202 4.7398 14.2895L8.50906 10.5204L7.07544 9.09265C6.97463 9.19345 6.84712 9.24386 6.69289 9.24386C6.53857 9.24386 6.411 9.19345 6.3102 9.09265L6.01039 8.78686V10.068C6.01039 10.1956 5.9539 10.282 5.84092 10.3273C5.72794 10.3726 5.62616 10.3499 5.53559 10.2593L3.98638 8.71011C3.89581 8.61954 3.87319 8.51781 3.91853 8.40493C3.96376 8.29195 4.05014 8.23546 4.17765 8.23546H5.45884L5.17423 7.95085C5.06329 7.83981 5.00783 7.70933 5.00783 7.55941C5.00783 7.40948 5.06329 7.279 5.17423 7.16796L6.53463 5.80772C6.70778 5.63446 6.89532 5.50771 7.09724 5.42748C7.29915 5.34714 7.50915 5.30697 7.72724 5.30697C7.90039 5.30697 8.06373 5.33179 8.21724 5.38142C8.37074 5.43095 8.52072 5.5093 8.66717 5.61644C8.73717 5.66362 8.77575 5.72835 8.78292 5.81063C8.78998 5.89291 8.76163 5.96593 8.69787 6.02969L7.70835 7.01921L8.04607 7.35693C8.14677 7.45763 8.19713 7.58514 8.19713 7.73947C8.19713 7.8938 8.14677 8.02131 8.04607 8.12202L9.47954 9.5498L10.9557 8.07366C10.8872 7.94932 10.8372 7.82083 10.8057 7.6882C10.7742 7.55547 10.7584 7.41593 10.7584 7.26958C10.7584 6.71695 10.9489 6.25013 11.3299 5.86912C11.7109 5.48811 12.1778 5.29761 12.7304 5.29761C12.8005 5.29761 12.8645 5.29914 12.9223 5.30221C12.9802 5.30539 13.041 5.31526 13.1048 5.33184C13.1811 5.35855 13.2311 5.41264 13.2548 5.4941C13.2783 5.57566 13.2602 5.64633 13.2004 5.70609L12.2616 6.6448C12.2042 6.70232 12.1755 6.76807 12.1755 6.84206C12.1755 6.91605 12.2042 6.9818 12.2616 7.03932L12.9607 7.7384C13.0182 7.79581 13.0839 7.82452 13.1579 7.82452C13.2319 7.82452 13.2977 7.79581 13.3552 7.7384L14.2939 6.79954C14.3536 6.73977 14.4243 6.72012 14.5059 6.74059C14.5873 6.76106 14.6414 6.81259 14.6681 6.89517C14.6847 6.95893 14.6946 7.01977 14.6978 7.07769C14.7008 7.13552 14.7024 7.19948 14.7024 7.26958C14.7024 7.82221 14.5119 8.28903 14.1309 8.67004C13.7498 9.05105 13.283 9.24155 12.7304 9.24155C12.584 9.24155 12.4445 9.22738 12.3118 9.19903C12.1791 9.17068 12.0507 9.11911 11.9263 9.0443L5.71044 15.2602C5.57975 15.3909 5.41795 15.4562 5.22504 15.4562C5.03223 15.4562 4.87049 15.3909 4.7398 15.2602C4.60911 15.1295 4.54377 14.9677 4.54377 14.7749Z" fill="#FDFDFD"/>
</g>
</svg>
