<svg width="20" height="20" viewBox="0 0 20 20" fill="none" xmlns="http://www.w3.org/2000/svg">
<circle cx="10" cy="10" r="10" fill="#54DBED"/>
<mask id="mask0_53_554" style="mask-type:alpha" maskUnits="userSpaceOnUse" x="2" y="3" width="15" height="15">
<rect x="2.10526" y="3.15784" width="14.7368" height="14.7368" fill="#D9D9D9"/>
</mask>
<g mask="url(#mask0_53_554)">
<path d="M3.96394 13.7557C3.86866 13.6606 3.82358 13.5512 3.8287 13.4275C3.83382 13.3039 3.8789 13.1996 3.96394 13.1147L7.06129 9.97712C7.27303 9.76139 7.53517 9.65353 7.84771 9.65353C8.16015 9.65353 8.42424 9.76139 8.63997 9.97712L10.1738 11.5205C10.2093 11.5559 10.2527 11.5736 10.3039 11.5736C10.355 11.5736 10.4003 11.5559 10.4396 11.5205L13.7507 8.246H12.3903C12.2597 8.246 12.1503 8.20195 12.0621 8.11383C11.9739 8.02562 11.9298 7.91616 11.9298 7.78548C11.9298 7.65479 11.9739 7.54539 12.0621 7.45728C12.1503 7.36906 12.2597 7.32495 12.3903 7.32495H14.7519C14.9102 7.32495 15.0423 7.37791 15.1481 7.48383C15.2541 7.58975 15.307 7.72182 15.307 7.88004V10.2416C15.307 10.3723 15.2629 10.4818 15.1747 10.57C15.0866 10.6581 14.9772 10.7021 14.8465 10.7021C14.7158 10.7021 14.6064 10.6591 14.5183 10.5729C14.4301 10.4867 14.386 10.3783 14.386 10.2476V8.89304L11.0903 12.1889C10.8784 12.4006 10.6163 12.5065 10.3039 12.5065C9.99131 12.5065 9.72917 12.4006 9.51743 12.1889L7.98341 10.6549C7.94801 10.6195 7.90277 10.6017 7.84771 10.6017C7.79255 10.6017 7.74727 10.6195 7.71186 10.6549L4.61098 13.7557C4.52205 13.8448 4.41418 13.8893 4.28738 13.8893C4.16069 13.8893 4.05287 13.8448 3.96394 13.7557Z" fill="#FDFDFD"/>
</g>
</svg>
